Coordinates
version=1
nRows=12
nColumns=46
inDegrees=yes

Units are S.I. units (second, meters, Newtons, ...)
Angles are in degrees.

endheader
time	pelvis_tilt	pelvis_list	pelvis_rotation	pelvis_tx	pelvis_ty	pelvis_tz	bb_angle	bb_tx	bb_ty	bb_tz	hip_flexion_r	hip_adduction_r	hip_rotation_r	knee_angle_r	knee_angle_r_beta	ankle_angle_r	subtalar_angle_r	mtp_angle_r	crank_angle_r	hip_flexion_l	hip_adduction_l	hip_rotation_l	knee_angle_l	knee_angle_l_beta	ankle_angle_l	subtalar_angle_l	mtp_angle_l	crank_angle_l	lumbar_extension	lumbar_bending	lumbar_rotation	arm_flex_r	arm_add_r	arm_rot_r	elbow_flex_r	pro_sup_r	wrist_flex_r	wrist_dev_r	arm_flex_l	arm_add_l	arm_rot_l	elbow_flex_l	pro_sup_l	wrist_flex_l	wrist_dev_l
      7.50000000	     -9.50279934	     -5.19917488	     -7.64522297	      0.10273280	      1.16402348	     -0.25600475	      0.00000000	      0.50000000	      0.00000000	      0.25000000	     91.08427746	     -3.33912332	     -1.11700465	    107.90482057	      1.88329440	      3.79242602	      3.32899876	      0.00000000	      0.00000000	     44.84069394	    -19.21996921	    -13.21335217	     52.28356243	      0.91252031	    -22.15636853	      3.93188068	      0.00000000	      0.00000000	    -62.94857755	      5.05947240	      7.18439145	     89.77252756	      0.82423664	     26.63890316	     41.85488574	     21.40225552	      0.00000000	      0.00000000	     89.70492908	     -8.81245671	     30.99309037	     30.03214405	     19.65457624	      0.00000000	      0.00000000
      7.50500000	     -9.57594051	     -5.00248491	     -7.79934913	      0.10244179	      1.16441874	     -0.25568886	      0.00000000	      0.50000000	      0.00000000	      0.25000000	     90.53545144	     -3.06477089	     -1.04851850	    106.45406937	      1.85797401	      5.29786894	      3.70944544	      0.00000000	      0.00000000	     45.44982271	    -19.41224198	    -13.21446082	     53.84852244	      0.93983401	    -23.18917011	      3.25206257	      0.00000000	      0.00000000	    -62.91516621	      5.03942318	      7.04660613	     89.77545876	      1.01323293	     26.68070390	     41.83916889	     21.11798134	      0.00000000	      0.00000000	     89.70722469	     -8.95661304	     31.00799198	     29.80131788	     19.40154142	      0.00000000	      0.00000000
      7.51000000	     -9.65361118	     -4.82774996	     -7.86329269	      0.10217662	      1.16460742	     -0.25538589	      0.00000000	      0.50000000	      0.00000000	      0.25000000	     89.86064795	     -2.94597121	     -1.04485358	    104.90764053	      1.83098374	      6.85447226	      4.34813486	      0.00000000	      0.00000000	     46.15781319	    -19.54487310	    -13.09154750	     55.48105496	      0.96832708	    -24.27338498	      2.40463504	      0.00000000	      0.00000000	    -62.84661041	      4.96152403	      6.84095961	     89.77858633	      1.19396049	     26.73045608	     41.82964062	     20.99450414	      0.00000000	      0.00000000	     89.70530481	     -9.09422972	     30.99417239	     29.66496408	     19.37058166	      0.00000000	      0.00000000
      7.51500000	     -9.64945651	     -4.63740418	     -7.97961294	      0.10187261	      1.16495157	     -0.25474467	      0.00000000	      0.50000000	      0.00000000	      0.25000000	     88.94012492	     -2.71338215	     -1.04371644	    103.18572923	      1.80093072	      8.46767769	      4.74823673	      0.00000000	      0.00000000	     46.77201551	    -19.71786628	    -13.00839103	     57.12686931	      0.99705196	    -25.22763815	      1.66525832	      0.00000000	      0.00000000	    -62.86399978	      4.79308995	      6.63957981	     89.77902588	      1.33660879	     26.75811417	     41.91639296	     20.94985760	      0.00000000	      0.00000000	     89.70277133	     -9.25790201	     30.94158746	     29.66702379	     19.36922796	      0.00000000	      0.00000000
      7.52000000	     -9.61191065	     -4.40116272	     -7.95249260	      0.10156024	      1.16505992	     -0.25421850	      0.00000000	      0.50000000	      0.00000000	      0.25000000	     87.89899015	     -2.65114628	     -0.98790244	    101.37819889	      1.76938336	     10.06541793	      5.18786760	      0.00000000	      0.00000000	     47.46970980	    -19.75669909	    -12.81393049	     58.88612612	      1.02775678	    -26.10528155	      0.79055715	      0.00000000	      0.00000000	    -62.87431336	      4.68949106	      6.33858057	     89.77940636	      1.46939282	     26.77469024	     41.96684437	     20.88540127	      0.00000000	      0.00000000	     89.70038619	     -9.41948447	     30.88780519	     29.69901383	     19.37525150	      0.00000000	      0.00000000
      7.52500000	     -9.51558204	     -4.12246175	     -7.87661175	      0.10131792	      1.16515949	     -0.25368086	      0.00000000	      0.50000000	      0.00000000	      0.25000000	     86.70226923	     -2.70426086	     -0.99980897	     99.48582378	      1.73635518	     11.69359100	      5.36625773	      0.00000000	      0.00000000	     48.10861171	    -19.68875410	    -12.56297341	     60.65144079	      1.05856734	    -26.82525725	      0.08942027	      0.00000000	      0.00000000	    -62.92407721	      4.54174534	      5.98733191	     89.77940879	      1.51440507	     26.77235199	     41.97720869	     20.84145260	      0.00000000	      0.00000000	     89.70181642	     -9.52058377	     30.85109285	     29.73282439	     19.38194856	      0.00000000	      0.00000000
      7.53000000	     -9.43396477	     -3.92244757	     -7.76095684	      0.10104956	      1.16512985	     -0.25310108	      0.00000000	      0.50000000	      0.00000000	      0.25000000	     85.38750367	     -2.68395875	     -1.04464654	     97.42074818	      1.70031282	     13.16457833	      5.74068949	      0.00000000	      0.00000000	     48.84850276	    -19.68075386	    -12.25603309	     62.48050229	      1.09049048	    -27.53451634	     -0.76791070	      0.00000000	      0.00000000	    -62.95038056	      4.46664090	      5.68926557	     89.77931461	      1.61687006	     26.79321344	     41.95284960	     20.78091726	      0.00000000	      0.00000000	     89.69790235	     -9.63743107	     30.80701581	     29.82809467	     19.40109341	      0.00000000	      0.00000000
      7.53500000	     -9.31252144	     -3.46188840	     -7.64838991	      0.10090298	      1.16497463	     -0.25221125	      0.00000000	      0.50000000	      0.00000000	      0.25000000	     84.08751639	     -2.77212942	     -0.93787825	     95.33195506	      1.66385650	     14.16966586	      5.65339189	      0.00000000	      0.00000000	     49.47453342	    -19.45899752	    -12.09122753	     64.27267865	      1.12176986	    -27.91937050	     -1.10622967	      0.00000000	      0.00000000	    -62.90894160	      4.04837879	      5.11249479	     89.77270562	      1.54289859	     26.75650167	     41.94062584	     20.75893855	      0.00000000	      0.00000000	     89.70380158	     -9.56390811	     30.82440271	     29.88212218	     19.41309973	      0.00000000	      0.00000000
      7.54000000	     -9.15806035	     -3.37870408	     -7.50822776	      0.10093106	      1.16465906	     -0.25143566	      0.00000000	      0.50000000	      0.00000000	      0.25000000	     82.49961205	     -2.74102858	     -1.17232873	     93.13691529	      1.62554583	     15.73781453	      5.60005087	      0.00000000	      0.00000000	     50.25299116	    -19.59634866	    -11.71999869	     66.31433113	      1.15740342	    -28.27144089	     -1.98230694	      0.00000000	      0.00000000	    -62.99059553	      4.06582214	      4.96431130	     89.77249274	      1.59759506	     26.78914832	     41.82553754	     20.70531256	      0.00000000	      0.00000000	     89.70148416	     -9.70982064	     30.77103868	     29.98614090	     19.43261533	      0.00000000	      0.00000000
      7.54500000	     -9.07976070	     -3.30808778	     -7.29724016	      0.10088334	      1.16414223	     -0.25058344	      0.00000000	      0.50000000	      0.00000000	      0.25000000	     80.98354365	     -2.77485459	     -1.49567656	     90.81292488	      1.58498454	     16.55571507	      5.39363323	      0.00000000	      0.00000000	     51.18318118	    -19.68700206	    -11.21316904	     68.35615217	      1.19303992	    -28.60962541	     -2.67469080	      0.00000000	      0.00000000	    -63.01981037	      4.05722567	      4.79938001	     89.77230044	      1.65562401	     26.83557721	     41.60558831	     20.60476828	      0.00000000	      0.00000000	     89.69566473	     -9.76161654	     30.75311399	     30.17635198	     19.47310575	      0.00000000	      0.00000000
      7.55000000	     -8.93318178	     -3.05517891	     -7.08553612	      0.10091102	      1.16356072	     -0.24949771	      0.00000000	      0.50000000	      0.00000000	      0.25000000	     79.43202476	     -2.80160231	     -1.61250451	     88.53166085	      1.54516897	     17.34749465	      4.89507318	      0.00000000	      0.00000000	     51.99247424	    -19.67050440	    -10.91856286	     70.40543500	      1.22880665	    -28.58390057	     -3.21051236	      0.00000000	      0.00000000	    -63.02631766	      3.86128086	      4.45565353	     89.76848588	      1.60855533	     26.84193928	     41.46901304	     20.53890483	      0.00000000	      0.00000000	     89.69657928	     -9.74891725	     30.77951412	     30.30778847	     19.50233311	      0.00000000	      0.00000000
      7.55500000	     -8.82255765	     -2.79609696	     -6.88014482	      0.10092955	      1.16279967	     -0.24824801	      0.00000000	      0.50000000	      0.00000000	      0.25000000	     77.91047715	     -2.78690919	     -1.69056600	     86.22498402	      1.50490987	     17.90902550	      4.43236793	      0.00000000	      0.00000000	     52.89232618	    -19.66448215	    -10.55596510	     72.49620796	      1.26529752	    -28.49265522	     -3.62661282	      0.00000000	      0.00000000	    -62.98701114	      3.67129885	      4.13906394	     89.76433815	      1.56185607	     26.84629903	     41.30762477	     20.47783046	      0.00000000	      0.00000000	     89.70376252	     -9.73188341	     30.79905368	     30.37096042	     19.51573895	      0.00000000	      0.00000000
